<svg width="54" height="42" viewBox="0 0 54 42" fill="none" xmlns="http://www.w3.org/2000/svg">
<path d="M47.404 16.563C47.404 16.563 47.3782 16.563 47.3653 16.563C46.9524 16.563 46.5525 16.6924 46.1783 16.9383C45.8042 17.1841 45.4429 17.5594 45.0945 18.064V16.783H43.9463V25.53H45.0945V22.5669C45.0945 21.053 45.1591 20.0437 45.301 19.552C45.4816 18.9051 45.7525 18.4263 46.088 18.1158C46.4363 17.8052 46.7976 17.6499 47.1717 17.6499C47.2362 17.6499 47.3136 17.6499 47.391 17.6758V16.5501L47.404 16.563Z" fill="white"/>
<path d="M0.879883 13.7034H2.05392V25.5171H0.879883V13.7034Z" fill="white"/>
<path d="M4.56934 16.783H5.69178V18.3486C6.14334 17.7534 6.6336 17.3006 7.17547 17.0029C7.71734 16.7053 8.31083 16.563 8.95591 16.563C9.601 16.563 10.1816 16.7312 10.6847 17.0676C11.1879 17.4041 11.5621 17.844 11.8072 18.4133C12.0523 18.9697 12.1684 19.8496 12.1684 21.04V25.5429H11.046V21.3764C11.046 20.3672 11.0073 19.6943 10.917 19.3579C10.788 18.7756 10.5428 18.3486 10.1687 18.051C9.79453 17.7534 9.31717 17.6111 8.72369 17.6111C8.0399 17.6111 7.43351 17.8311 6.90454 18.2839C6.36267 18.7368 6.01432 19.2932 5.84659 19.9531C5.74338 20.3931 5.69178 21.1824 5.69178 22.334V25.5429H4.56934V16.7959V16.783Z" fill="white"/>
<path d="M15.549 13.5352H16.6714V16.783H18.4519V17.7534H16.6714V25.517H15.549V17.7534H14.0137V16.783H15.549V13.5352Z" fill="white"/>
<path d="M29.7148 13.4058H30.8373V25.517H29.7148V13.4058Z" fill="white"/>
<path d="M26.8379 23.2915C26.8379 23.2915 26.7347 23.4208 26.6702 23.4726C26.0251 24.1196 25.2381 24.4431 24.3479 24.4301C23.4448 24.4172 22.632 24.0549 21.8966 23.3562L27.4443 17.7922C26.5928 16.9512 25.6639 16.4724 24.6576 16.356C23.2384 16.1878 21.9998 16.6277 20.9419 17.6758C19.8839 18.7239 19.4969 19.9014 19.6646 21.2988C19.7936 22.3986 20.2581 23.3303 21.0322 24.1196C21.8579 24.9477 22.89 25.4135 24.1157 25.5041C25.3413 25.5947 26.4638 25.1418 27.4572 24.1325C27.5604 24.029 27.6637 23.9125 27.754 23.809L26.8251 23.2915H26.8379ZM20.7354 20.5871C20.787 19.759 21.1096 19.0474 21.716 18.4392C22.0772 18.0769 22.5159 17.7922 22.9932 17.624C23.4835 17.4429 23.948 17.3782 24.4124 17.4299C24.864 17.4817 25.3542 17.6629 25.8832 17.9863L21.2902 22.5927C20.8902 21.8552 20.6967 21.1953 20.7354 20.5871Z" fill="white"/>
<path d="M41.8555 16.783V25.53H40.7459V24.029C40.2815 24.5983 39.7525 25.0383 39.159 25.3229C38.5785 25.6076 37.9334 25.7629 37.2367 25.7629C35.9981 25.7629 34.9531 25.31 34.0757 24.4172C33.1984 23.5244 32.7598 22.4245 32.7598 21.1435C32.7598 19.8625 33.1984 18.8145 34.0757 17.9087C34.9531 17.0159 36.011 16.563 37.2625 16.563C37.9721 16.563 38.63 16.7183 39.2106 17.0159C39.7912 17.3264 40.2944 17.7793 40.733 18.3875V16.783H41.8426H41.8555ZM37.3786 17.637C36.7593 17.637 36.1787 17.7923 35.6498 18.1028C35.1208 18.4133 34.695 18.8403 34.3854 19.3967C34.0758 19.9531 33.9209 20.5354 33.9209 21.1565C33.9209 21.7776 34.0757 22.3598 34.3983 22.9162C34.7079 23.4726 35.1337 23.9125 35.6627 24.2231C36.1916 24.5336 36.7593 24.6889 37.3657 24.6889C37.9721 24.6889 38.5655 24.5336 39.1074 24.2231C39.6622 23.9125 40.0751 23.4985 40.3718 22.968C40.6685 22.4375 40.8104 21.8423 40.8104 21.1823C40.8104 20.1731 40.475 19.332 39.817 18.6462C39.159 17.9605 38.3333 17.624 37.3657 17.624L37.3786 17.637Z" fill="white"/>
<path d="M50.2931 13.5352H51.4156V16.783H53.196V17.7534H51.4156V25.517H50.2931V17.7534H48.7578V16.783H50.2931V13.5352Z" fill="white"/>
<path d="M27.0319 0.557091C18.1556 0.557091 10.6081 6.2504 7.82129 14.1951H8.41478C11.1757 6.57388 18.4652 1.11348 27.0319 1.11348C35.5987 1.11348 42.8882 6.56094 45.6491 14.1951H46.2426C43.4558 6.2504 35.9083 0.557091 27.0319 0.557091Z" fill="white"/>
<path d="M45.6106 27.8849C42.8109 35.4544 35.5601 40.8372 27.045 40.8372C18.5299 40.8372 11.2662 35.4415 8.47943 27.8849H7.87305C10.6985 35.765 18.2073 41.4065 27.045 41.4065C35.8827 41.4065 43.3915 35.765 46.217 27.8849H45.6106Z" fill="white"/>
</svg>
