<svg width="42" height="32" viewBox="0 0 42 32" fill="none" xmlns="http://www.w3.org/2000/svg">
<path d="M38.3189 0.942825H3.65193C1.91333 0.942825 0.503906 2.35635 0.503906 4.10002V28.4907C0.503906 30.2343 1.91333 31.6478 3.65193 31.6478H38.3189C40.0575 31.6478 41.4669 30.2343 41.4669 28.4907V4.10002C41.4669 2.35635 40.0575 0.942825 38.3189 0.942825Z" fill="url(#paint0_linear_3_791)" stroke="#706F6F" stroke-width="0.546798" stroke-miterlimit="10"/>
<path fill-rule="evenodd" clip-rule="evenodd" d="M0.503906 5.31632C0.503906 4.60466 1.04578 4.03533 1.70377 4.03533H11.2123C11.8832 4.03533 12.4122 4.60466 12.4122 5.31632V11.6695C12.4122 12.3812 11.8703 12.9505 11.2123 12.9505H1.70377C1.03288 12.9505 0.503906 12.3812 0.503906 11.6695V5.31632ZM1.70377 4.5529C1.30381 4.5529 0.981273 4.90226 0.981273 5.31632V11.6695C0.981273 12.0965 1.30381 12.433 1.70377 12.433H11.2123C11.6123 12.433 11.9348 12.0836 11.9348 11.6695V5.31632C11.9348 4.88932 11.6123 4.5529 11.2123 4.5529H1.70377Z" fill="#706F6F"/>
<path fill-rule="evenodd" clip-rule="evenodd" d="M0.503906 13.7139C0.503906 13.0023 1.04578 12.4329 1.70377 12.4329H11.2123C11.8832 12.4329 12.4122 13.0023 12.4122 13.7139V20.0671C12.4122 20.7788 11.8703 21.3481 11.2123 21.3481H1.70377C1.03288 21.3481 0.503906 20.7788 0.503906 20.0671V13.7139ZM1.70377 12.9505C1.30381 12.9505 0.981273 13.2999 0.981273 13.7139V20.0671C0.981273 20.4941 1.30381 20.8306 1.70377 20.8306H11.2123C11.6123 20.8306 11.9348 20.4812 11.9348 20.0671V13.7139C11.9348 13.2869 11.6123 12.9505 11.2123 12.9505H1.70377Z" fill="#706F6F"/>
<path fill-rule="evenodd" clip-rule="evenodd" d="M14.5802 12.7823C14.5802 12.0706 15.1221 11.5013 15.7801 11.5013H28.8108C29.4817 11.5013 30.0107 12.0706 30.0107 12.7823V13.067C30.0107 13.7786 29.4688 14.348 28.8108 14.348H28.1012C27.7012 14.348 27.3787 14.6973 27.3787 15.1114V21.9304C27.3787 22.6421 26.8368 23.2114 26.1788 23.2114H13.1481C12.4772 23.2114 11.9482 22.6421 11.9482 21.9304V21.1799C11.9482 20.4683 12.4901 19.8989 13.1481 19.8989H13.8577C14.2577 19.8989 14.5802 19.5496 14.5802 19.1355V12.7823ZM15.7801 12.0189C15.3801 12.0189 15.0576 12.3682 15.0576 12.7823V19.1355C15.0576 19.8472 14.5157 20.4165 13.8577 20.4165H13.1481C12.7481 20.4165 12.4256 20.7659 12.4256 21.1799V21.9304C12.4256 22.3574 12.7481 22.6938 13.1481 22.6938H26.1788C26.5788 22.6938 26.9013 22.3445 26.9013 21.9304V15.1114C26.9013 14.3997 27.4432 13.8304 28.1012 13.8304H28.8108C29.2107 13.8304 29.5333 13.481 29.5333 13.067V12.7823C29.5333 12.3553 29.2107 12.0189 28.8108 12.0189H15.7801Z" fill="#706F6F"/>
<path fill-rule="evenodd" clip-rule="evenodd" d="M0.503906 22.1245C0.503906 21.4128 1.04578 20.8435 1.70377 20.8435H11.2123C11.8832 20.8435 12.4122 21.4128 12.4122 22.1245V28.4777C12.4122 29.1894 11.8703 29.7587 11.2123 29.7587H1.70377C1.03288 29.7587 0.503906 29.1894 0.503906 28.4777V22.1245ZM1.70377 21.3611C1.30381 21.3611 0.981273 21.7104 0.981273 22.1245V28.4777C0.981273 28.9047 1.30381 29.2411 1.70377 29.2411H11.2123C11.6123 29.2411 11.9348 28.8918 11.9348 28.4777V22.1245C11.9348 21.6975 11.6123 21.3611 11.2123 21.3611H1.70377Z" fill="#706F6F"/>
<path fill-rule="evenodd" clip-rule="evenodd" d="M29.5332 5.31631C29.5332 4.60465 30.0751 4.03532 30.7331 4.03532H40.2416C40.9125 4.03532 41.4415 4.60465 41.4415 5.31631V11.6695C41.4415 12.3812 40.8996 12.9505 40.2416 12.9505H30.7331C30.0622 12.9505 29.5332 12.3812 29.5332 11.6695V5.31631ZM30.7331 4.55289C30.3331 4.55289 30.0106 4.90226 30.0106 5.31631V11.6695C30.0106 12.0965 30.3331 12.4329 30.7331 12.4329H40.2416C40.6416 12.4329 40.9641 12.0836 40.9641 11.6695V5.31631C40.9641 4.88932 40.6416 4.55289 40.2416 4.55289H30.7331Z" fill="#706F6F"/>
<path fill-rule="evenodd" clip-rule="evenodd" d="M29.5332 13.7139C29.5332 13.0023 30.0751 12.4329 30.7331 12.4329H40.2416C40.9125 12.4329 41.4415 13.0023 41.4415 13.7139V20.0671C41.4415 20.7788 40.8996 21.3481 40.2416 21.3481H30.7331C30.0622 21.3481 29.5332 20.7788 29.5332 20.0671V13.7139ZM30.7331 12.9505C30.3331 12.9505 30.0106 13.2999 30.0106 13.7139V20.0671C30.0106 20.4941 30.3331 20.8306 30.7331 20.8306H40.2416C40.6416 20.8306 40.9641 20.4812 40.9641 20.0671V13.7139C40.9641 13.2869 40.6416 12.9505 40.2416 12.9505H30.7331Z" fill="#706F6F"/>
<path fill-rule="evenodd" clip-rule="evenodd" d="M29.5332 22.1245C29.5332 21.4128 30.0751 20.8435 30.7331 20.8435H40.2416C40.9125 20.8435 41.4415 21.4128 41.4415 22.1245V28.4777C41.4415 29.1894 40.8996 29.7587 40.2416 29.7587H30.7331C30.0622 29.7587 29.5332 29.1894 29.5332 28.4777V22.1245ZM30.7331 21.3611C30.3331 21.3611 30.0106 21.7104 30.0106 22.1245V28.4777C30.0106 28.9047 30.3331 29.2411 30.7331 29.2411H40.2416C40.6416 29.2411 40.9641 28.8918 40.9641 28.4777V22.1245C40.9641 21.6975 40.6416 21.3611 40.2416 21.3611H30.7331Z" fill="#706F6F"/>
<defs>
<linearGradient id="paint0_linear_3_791" x1="2.07792" y1="4.5529" x2="40.1218" y2="28.0551" gradientUnits="userSpaceOnUse">
<stop offset="0.1" stop-color="#B2B2B2"/>
<stop offset="0.17" stop-color="#C1C1C1"/>
<stop offset="0.39" stop-color="#EDEDED"/>
<stop offset="0.5" stop-color="white"/>
<stop offset="0.58" stop-color="#F4F4F4"/>
<stop offset="0.72" stop-color="#D8D8D8"/>
<stop offset="0.75" stop-color="#D2D2D2"/>
</linearGradient>
</defs>
</svg>
