<svg width="123" height="95" viewBox="0 0 123 95" fill="none" xmlns="http://www.w3.org/2000/svg">
<path d="M108.563 37.2183C108.532 37.2183 108.501 37.2183 108.471 37.2183C107.511 37.2183 106.587 37.5092 105.703 38.0859C104.82 38.6678 103.977 39.5406 103.181 40.7094V37.7389H100.51V58.0679H103.181V51.1929C103.181 47.6661 103.344 45.3285 103.666 44.1699C104.09 42.6642 104.708 41.5515 105.514 40.837C106.326 40.1224 107.164 39.7651 108.037 39.7651C108.195 39.7651 108.369 39.7907 108.558 39.8315V37.2285L108.563 37.2183Z" fill="white"/>
<path d="M0 30.583H2.74713V58.0678H0V30.583Z" fill="white"/>
<path d="M8.61923 37.7389H11.2336V41.3831C12.2804 39.9897 13.4395 38.9434 14.7109 38.2544C15.9824 37.5653 17.3661 37.2183 18.8623 37.2183C20.3584 37.2183 21.7319 37.6062 22.9115 38.3769C24.091 39.1476 24.959 40.1888 25.5207 41.4954C26.0824 42.802 26.3632 44.8385 26.3632 47.6048V58.0679H23.7489V48.3704C23.7489 46.0277 23.6519 44.4659 23.4578 43.6799C23.1566 42.3324 22.5745 41.3218 21.7115 40.643C20.8537 39.9642 19.7303 39.6273 18.3465 39.6273C16.7636 39.6273 15.3441 40.1479 14.0931 41.1942C12.8421 42.2406 12.0148 43.537 11.6166 45.0784C11.3664 46.0889 11.2438 47.9315 11.2438 50.6111V58.0679H8.62944V37.7389H8.61923Z" fill="white"/>
<path d="M34.2421 30.1899H36.8565V37.7387H41.0078V39.9998H36.8565V58.0678H34.2421V39.9998H30.6729V37.7387H34.2421V30.1899Z" fill="white"/>
<path d="M67.2945 29.894H69.9089V58.0679H67.2945V29.894Z" fill="white"/>
<path d="M60.5901 52.8769C60.4624 53.0198 60.3399 53.1627 60.202 53.3005C58.6855 54.8164 56.8779 55.5565 54.7741 55.5208C52.6755 55.485 50.7709 54.648 49.0654 53.0147L62.0045 40.0813C60.0233 38.1367 57.8532 37.024 55.4992 36.7535C52.1751 36.3605 49.2901 37.3864 46.8391 39.8363C44.3881 42.2862 43.4639 45.0219 43.8622 48.2578C44.1686 50.8047 45.2358 52.9892 47.0587 54.8113C48.999 56.7508 51.3989 57.8226 54.2584 58.0421C57.1179 58.2565 59.722 57.1898 62.0658 54.847C62.316 54.5969 62.5509 54.3417 62.7704 54.0865L60.5901 52.8769ZM46.3591 46.5786C46.4664 44.6595 47.2272 42.9905 48.6365 41.5818C49.4943 40.7244 50.49 40.0915 51.6287 39.6781C52.7674 39.2646 53.8652 39.1166 54.9273 39.234C55.9894 39.3514 57.1383 39.7801 58.374 40.5202L47.6561 51.2334C46.7114 49.5338 46.2825 47.9822 46.3642 46.5786H46.3591Z" fill="white"/>
<path d="M95.6134 37.7386V58.0677H93.0348V54.5715C91.937 55.9036 90.7064 56.9091 89.343 57.5777C87.9797 58.2514 86.4836 58.5883 84.8649 58.5883C81.985 58.5883 79.5289 57.5471 77.4916 55.4595C75.4542 53.372 74.433 50.8354 74.433 47.8444C74.433 44.8535 75.4593 42.4138 77.5171 40.3314C79.5749 38.249 82.0463 37.2129 84.9364 37.2129C86.6061 37.2129 88.1175 37.5702 89.4707 38.2796C90.8238 38.9891 92.0085 40.0558 93.0297 41.4747V37.7386H95.6083H95.6134ZM85.156 39.7393C83.7007 39.7393 82.3578 40.0966 81.1221 40.8112C79.8915 41.5257 78.9111 42.5312 78.1809 43.8276C77.4507 45.124 77.0882 46.4919 77.0882 47.9312C77.0882 49.3705 77.4558 50.7333 78.1911 52.0348C78.9264 53.3414 79.9119 54.3571 81.1527 55.087C82.3935 55.8168 83.7211 56.1792 85.1406 56.1792C86.5602 56.1792 87.9286 55.8168 89.2103 55.0972C90.4919 54.3775 91.4774 53.3975 92.1719 52.1675C92.8612 50.9374 93.2084 49.5492 93.2084 48.0078C93.2084 45.6548 92.4323 43.6898 90.8851 42.1127C89.3379 40.5305 87.4282 39.7445 85.1611 39.7445L85.156 39.7393Z" fill="white"/>
<path d="M115.298 30.1899H117.912V37.7387H122.064V39.9998H117.912V58.0678H115.298V39.9998H111.729V37.7387H115.298V30.1899Z" fill="white"/>
<path d="M61.0292 0C40.3185 0 22.7072 13.2448 16.1968 31.7211H17.5959C24.0502 13.9848 41.0589 1.31682 61.0292 1.31682C80.9995 1.31682 98.0134 13.9848 104.462 31.7211H105.862C99.3563 13.2448 81.7399 0 61.0292 0Z" fill="#F59E00"/>
<path d="M104.36 63.5596C97.8346 81.1478 80.8974 93.6882 61.0292 93.6882C41.161 93.6882 24.2238 81.1529 17.698 63.5596H16.299C22.8859 81.8879 40.4257 95 61.0292 95C81.6327 95 99.1724 81.8879 105.759 63.5596H104.36Z" fill="#F59E00"/>
</svg>
