<svg width="66" height="42" viewBox="0 0 66 42" fill="none" xmlns="http://www.w3.org/2000/svg">
<path d="M41.9343 4.58261H24.1299V36.6721H41.9343V4.58261Z" fill="#EA560D"/>
<path d="M25.2648 20.6274C25.2648 14.1189 28.3096 8.32208 33.0316 4.58262C29.574 1.85242 25.2003 0.222061 20.4524 0.222061C9.21505 0.222061 0.106445 9.35723 0.106445 20.6274C0.106445 31.8975 9.21505 41.0327 20.4524 41.0327C25.2003 41.0327 29.5611 39.4023 33.0316 36.6721C28.2967 32.9327 25.2648 27.1359 25.2648 20.6274Z" fill="#E30613"/>
<path d="M65.9564 20.6274C65.9564 31.8975 56.8478 41.0327 45.6104 41.0327C40.8626 41.0327 36.5018 39.4023 33.0312 36.6721C37.7662 32.9327 40.7981 27.1359 40.7981 20.6274C40.7981 14.1189 37.7533 8.32208 33.0312 4.58262C36.4889 1.85242 40.8626 0.222061 45.6104 0.222061C56.8478 0.222061 65.9564 9.35723 65.9564 20.6274Z" fill="#F59E00"/>
</svg>
