<svg width="14" height="17" viewBox="0 0 14 17" fill="none" xmlns="http://www.w3.org/2000/svg">
<path d="M0.864867 6.34431C1.07129 6.62898 1.23902 6.93952 1.35514 7.28889C1.47125 7.62531 1.53576 7.9876 1.53576 8.37578C1.53576 8.76396 1.47125 9.12627 1.35514 9.46269C1.25192 9.79912 1.0842 10.1226 0.864867 10.4073C0.581029 10.7954 0.658438 11.3389 1.04549 11.6236C1.43254 11.9082 1.97442 11.8306 2.25825 11.4424C2.5679 11.0154 2.82593 10.5367 3.00656 10.0191C3.17428 9.50151 3.26459 8.94511 3.26459 8.37578C3.26459 7.80645 3.17428 7.25007 3.00656 6.73249C2.82593 6.21492 2.5808 5.73616 2.25825 5.30916C1.97442 4.92098 1.43254 4.84335 1.04549 5.12801C0.658438 5.41268 0.581029 5.95613 0.864867 6.34431Z" fill="white"/>
<path d="M3.83236 4.71395C4.49035 5.77497 4.8645 7.01715 4.8645 8.36284C4.8645 9.70853 4.49035 10.9507 3.83236 12.0117C3.58723 12.4258 3.71625 12.9563 4.1162 13.2022C4.52905 13.448 5.05803 13.3315 5.31606 12.9175C6.12887 11.5977 6.60623 10.032 6.60623 8.36284C6.60623 6.69366 6.14177 5.12801 5.31606 3.8082C5.05803 3.39414 4.52905 3.27769 4.1162 3.52353C3.71625 3.76938 3.58723 4.31283 3.83236 4.71395Z" fill="white"/>
<path d="M6.99346 3.07065C7.89658 4.62336 8.42555 6.43487 8.42555 8.36282C8.42555 10.2908 7.90948 12.1023 6.99346 13.655C6.74833 14.0691 6.89025 14.5996 7.30311 14.8454C7.71596 15.0913 8.24493 14.9489 8.49007 14.5349C9.54801 12.7234 10.1544 10.6143 10.1544 8.36282C10.1544 6.11138 9.54801 4.00228 8.49007 2.19077C8.24493 1.77671 7.71596 1.63438 7.30311 1.88023C6.89025 2.12608 6.74833 2.65659 6.99346 3.07065Z" fill="white"/>
<path d="M10.1287 1.41442C11.2899 3.47177 11.9608 5.83966 11.9608 8.36283C11.9608 10.8989 11.2899 13.2668 10.1287 15.3113C9.8965 15.7253 10.0384 16.2558 10.4513 16.4887C10.8641 16.7216 11.3931 16.5793 11.6382 16.1653C12.9413 13.8621 13.6896 11.1966 13.6896 8.3499C13.6896 5.50325 12.9413 2.83775 11.6382 0.534548C11.406 0.120489 10.8641 -0.0347826 10.4513 0.211065C10.0255 0.443972 9.8836 0.974482 10.1287 1.40148" fill="white"/>
</svg>
